<svg
    xmlns="http://www.w3.org/2000/svg"
    width="32"
    height="32"
    viewBox="0 0 24 24"
>
    <!-- <path
    fill="#888888"
    d="M3 21q-.825 0-1.412-.587T1 19V5q0-.825.588-1.412T3 3h18q.825 0 1.413.588T23 5v14q0 .825-.587 1.413T21 21zM7 9v7q0 .425.288.713T8 17t.713-.288T9 16V8q0-.425-.288-.712T8 7H6q-.425 0-.712.288T5 8t.288.713T6 9zm8.25 4.825l1.5 2.725q.125.2.325.325t.45.125q.5 0 .75-.437t0-.863L16.25 12l2.05-3.7q.25-.425-.012-.862T17.525 7q-.25 0-.45.125t-.325.325l-1.5 2.725l-1.5-2.725q-.125-.2-.325-.325T12.975 7q-.5 0-.75.438t0 .862L14.25 12l-2.05 3.7q-.25.425.013.863t.762.437q.25 0 .45-.125t.325-.325z"
    /> -->
    <symbol
    viewBox="0 0 24 24"
    id="material-symbols-1x-mobiledata-badge-rounded"
    >
    <path
        fill="#888888"
        d="M3 21q-.825 0-1.412-.587T1 19V5q0-.825.588-1.412T3 3h18q.825 0 1.413.588T23 5v14q0 .825-.587 1.413T21 21zM7 9v7q0 .425.288.713T8 17t.713-.288T9 16V8q0-.425-.288-.712T8 7H6q-.425 0-.712.288T5 8t.288.713T6 9zm8.25 4.825l1.5 2.725q.125.2.325.325t.45.125q.5 0 .75-.437t0-.863L16.25 12l2.05-3.7q.25-.425-.012-.862T17.525 7q-.25 0-.45.125t-.325.325l-1.5 2.725l-1.5-2.725q-.125-.2-.325-.325T12.975 7q-.5 0-.75.438t0 .862L14.25 12l-2.05 3.7q-.25.425.013.863t.762.437q.25 0 .45-.125t.325-.325z"
    ></path>
    </symbol>
    <symbol viewBox="0 0 24 24" id="material-symbols-clear-day-rounded"><path d="M12 5q-.425 0-.712-.288Q11 4.425 11 4V2q0-.425.288-.713Q11.575 1 12 1t.713.287Q13 1.575 13 2v2q0 .425-.287.712Q12.425 5 12 5Zm4.95 2.05q-.275-.275-.275-.688q0-.412.275-.712l1.4-1.425q.3-.3.712-.3q.413 0 .713.3q.275.275.275.7q0 .425-.275.7L18.35 7.05q-.275.275-.7.275q-.425 0-.7-.275ZM20 13q-.425 0-.712-.288Q19 12.425 19 12t.288-.713Q19.575 11 20 11h2q.425 0 .712.287q.288.288.288.713t-.288.712Q22.425 13 22 13Zm-8 10q-.425 0-.712-.288Q11 22.425 11 22v-2q0-.425.288-.712Q11.575 19 12 19t.713.288Q13 19.575 13 20v2q0 .425-.287.712Q12.425 23 12 23ZM5.65 7.05l-1.425-1.4q-.3-.3-.3-.725t.3-.7q.275-.275.7-.275q.425 0 .7.275L7.05 5.65q.275.275.275.7q0 .425-.275.7q-.3.275-.7.275q-.4 0-.7-.275Zm12.7 12.725l-1.4-1.425q-.275-.3-.275-.712q0-.413.275-.688q.275-.275.688-.275q.412 0 .712.275l1.425 1.4q.3.275.287.7q-.012.425-.287.725q-.3.3-.725.3t-.7-.3ZM2 13q-.425 0-.712-.288Q1 12.425 1 12t.288-.713Q1.575 11 2 11h2q.425 0 .713.287Q5 11.575 5 12t-.287.712Q4.425 13 4 13Zm2.225 6.775q-.275-.275-.275-.7q0-.425.275-.7L5.65 16.95q.275-.275.688-.275q.412 0 .712.275q.3.3.3.713q0 .412-.3.712l-1.4 1.4q-.3.3-.725.3t-.7-.3ZM12 18q-2.5 0-4.25-1.75T6 12q0-2.5 1.75-4.25T12 6q2.5 0 4.25 1.75T18 12q0 2.5-1.75 4.25T12 18Zm0-2q1.65 0 2.825-1.175Q16 13.65 16 12q0-1.65-1.175-2.825Q13.65 8 12 8q-1.65 0-2.825 1.175Q8 10.35 8 12q0 1.65 1.175 2.825Q10.35 16 12 16Zm0 0q-1.65 0-2.825-1.175Q8 13.65 8 12q0-1.65 1.175-2.825Q10.35 8 12 8q1.65 0 2.825 1.175Q16 10.35 16 12q0 1.65-1.175 2.825Q13.65 16 12 16Z"></path></symbol>
</svg>